<svg id="Calque_1" data-name="Calque 1" xmlns="http://www.w3.org/2000/svg" viewBox="0 0 293.93 26.67"><defs><style>.cls-1{fill:#200709;}.cls-2{fill:#c90f10;}</style></defs><path class="cls-1" d="M195.16,369.26a12,12,0,0,1-4.21,7,11.7,11.7,0,0,1-5.73,2.45l-.72-1.91-.16-.42-1.24-3.36a6,6,0,0,0,3.14-1,6.11,6.11,0,0,0,2.26-2.79Z" transform="translate(-108.49 -352.3)"/><path class="cls-1" d="M195.16,362.12H188.5a6.17,6.17,0,0,0-2.26-2.83,6.32,6.32,0,0,0-3.63-1,5.46,5.46,0,0,0-4.29,1.85l-2.21-6a12.87,12.87,0,0,1,6.61-1.65,12.73,12.73,0,0,1,8.23,2.61A11.94,11.94,0,0,1,195.16,362.12Z" transform="translate(-108.49 -352.3)"/><path class="cls-1" d="M217.73,354a12.38,12.38,0,0,1,4.72,4.75,14.47,14.47,0,0,1,0,13.74,12.62,12.62,0,0,1-4.75,4.76,13.75,13.75,0,0,1-13.28,0,12.53,12.53,0,0,1-4.74-4.76,14.36,14.36,0,0,1,0-13.74,12.5,12.5,0,0,1,4.74-4.75,13.82,13.82,0,0,1,13.32,0Zm-11.59,6.14a9.08,9.08,0,0,0,0,10.91,7,7,0,0,0,9.8,0,9,9,0,0,0,0-10.89,7,7,0,0,0-9.82,0Z" transform="translate(-108.49 -352.3)"/><path class="cls-1" d="M257,352.89v25.82h-6.29V362.56l-5.59,16.15h-5.45L234,362.53v16.18h-6.29V352.89h7.69l7,18,6.88-18Z" transform="translate(-108.49 -352.3)"/><path class="cls-1" d="M290.55,352.89v25.82h-6.29V362.56l-5.59,16.15h-5.45l-5.63-16.18v16.18H261.3V352.89H269l7,18,6.88-18Z" transform="translate(-108.49 -352.3)"/><path class="cls-1" d="M301,352.7v15a5.94,5.94,0,0,0,1.15,3.94,4.86,4.86,0,0,0,6.74,0,5.94,5.94,0,0,0,1.15-3.94v-15h6.29v15a12.31,12.31,0,0,1-1.43,6.2A9.35,9.35,0,0,1,311,377.7a12.07,12.07,0,0,1-5.61,1.27,11.82,11.82,0,0,1-5.52-1.25,8.91,8.91,0,0,1-3.75-3.79,13,13,0,0,1-1.36-6.22v-15Z" transform="translate(-108.49 -352.3)"/><path class="cls-1" d="M343.63,378.71h-6.29l-10.52-16v16h-6.29v-26h6.29l10.52,16.12V352.7h6.29Z" transform="translate(-108.49 -352.3)"/><path class="cls-1" d="M354.26,352.7v26H348v-26Z" transform="translate(-108.49 -352.3)"/><path class="cls-1" d="M377.29,352.7v5h-7.06v21H363.9v-21h-7v-5Z" transform="translate(-108.49 -352.3)"/><path class="cls-1" d="M402.42,352.7l-9,17.37v8.64h-6.32v-8.64l-9-17.37h7.21l5,10.6,5-10.6Z" transform="translate(-108.49 -352.3)"/><path class="cls-2" d="M129.5,354.84a10.18,10.18,0,0,1,3.93,6.47h-6.66a5.09,5.09,0,0,0-2-2.22,6.78,6.78,0,0,0-8.06,1.17,9.3,9.3,0,0,0,.1,11.13,7,7,0,0,0,5.38,2,6.36,6.36,0,0,0,6.33-4.75h-7.94v-4.52h13.2v6.22a12.65,12.65,0,0,1-2.35,4.23,12.13,12.13,0,0,1-4.14,3.16,13.1,13.1,0,0,1-5.76,1.21,13.67,13.67,0,0,1-6.88-1.67,11.52,11.52,0,0,1-4.54-4.69,15.59,15.59,0,0,1,0-13.76,11.6,11.6,0,0,1,4.52-4.69,13.48,13.48,0,0,1,6.83-1.67A13,13,0,0,1,129.5,354.84Z" transform="translate(-108.49 -352.3)"/><path class="cls-2" d="M156,352.7v5h-7.06v21h-6.33v-21h-7v-5Z" transform="translate(-108.49 -352.3)"/><path class="cls-2" d="M181,373.06l-4.78-12.95-2.21-6-.45-1.21h-7.25l-9.52,25.82h6.62L165,374h9.75l1.46,4.31h0l.14.43h6.7Zm-14.35-3.87L168,365.3l1.94-5.68,3.24,9.57Z" transform="translate(-108.49 -352.3)"/></svg>